# xmcd CD database file
#
# Track frame offsets:
#	150
#	11991
#	28356
#	47411
#	60077
#	79032
#	93264
#	108323
#	124479
#	149405
#	169124
#	184619
#	197712
#	213567
#	228028
#
# Disc length: 3316 seconds
#
# Revision: 2
# Processed by: cddbd v1.5.1PL2 Copyright (c) Steve Scherf et al.
# Submitted via: CDex 1.51
#
DISCID=c80cf20f
DTITLE=The Blues Band - Thank You Brother Ray
DYEAR=2004
DGENRE=Blues
TTITLE0=Sticks And Stones
TTITLE1=I Don´t Need No Doctor 
TTITLE2=Busted
TTITLE3=Hard Times
TTITLE4=Hallelujah I Love Her So 
TTITLE5=They´re Crazy About Me 
TTITLE6=I´m Moving On 
TTITLE7=Lonely Avenue
TTITLE8=Tell Me What You want me To Do 
TTITLE9=Leave My Woman Alone
TTITLE10=Georgia On My Mind
TTITLE11=Making Whoopee
TTITLE12=Losing Hand
TTITLE13=Let The Good Times roll
TTITLE14=Thank You Brother Ray
EXTD=YEAR: 2004
EXTT0=
EXTT1=
EXTT2=
EXTT3=
EXTT4=
EXTT5=
EXTT6=
EXTT7=
EXTT8=
EXTT9=
EXTT10=
EXTT11=
EXTT12=
EXTT13=
EXTT14=
PLAYORDER=
